HIERARCHY
ROOT Hips
{
  OFFSET 40.9192 92.6879 18.85
  CHANNELS 6 Xposition Yposition Zposition Zrotation Xrotation Yrotation
  JOINT LeftUpLeg
  {
    OFFSET 8.64259 1.95398 -2.38835
    CHANNELS 3 Zrotation Xrotation Yrotation
    JOINT LeftLeg
    {
      OFFSET 43.7702 0 0
      CHANNELS 3 Zrotation Xrotation Yrotation
      JOINT LeftFoot
      {
        OFFSET 40.6238 0 0
        CHANNELS 3 Zrotation Xrotation Yrotation
        JOINT LeftToeBase
        {
          OFFSET 12.7242 0 0
          CHANNELS 3 Zrotation Xrotation Yrotation
          End Site
          {
            OFFSET 0 0 0
          }
        }
      }
    }
  }
  JOINT RightUpLeg
  {
    OFFSET -8.2249 1.95398 -2.59336
    CHANNELS 3 Zrotation Xrotation Yrotation
    JOINT RightLeg
    {
      OFFSET 43.5653 0 0
      CHANNELS 3 Zrotation Xrotation Yrotation
      JOINT RightFoot
      {
        OFFSET 40.6238 0 0
        CHANNELS 3 Zrotation Xrotation Yrotation
        JOINT RightToeBase
        {
          OFFSET 12.7242 0 0
          CHANNELS 3 Zrotation Xrotation Yrotation
          End Site
          {
            OFFSET 0 0 0
          }
        }
      }
    }
  }
  JOINT Spine
  {
    OFFSET 0.165834 0.87714 6.61349
    CHANNELS 3 Zrotation Xrotation Yrotation
    JOINT Spine1
    {
      OFFSET 7.38963 1.71661e-005 0
      CHANNELS 3 Zrotation Xrotation Yrotation
      JOINT Spine2
      {
        OFFSET 11.9445 1.14441e-005 0
        CHANNELS 3 Zrotation Xrotation Yrotation
        JOINT Spine3
        {
          OFFSET 14.7254 4.19617e-005 0
          CHANNELS 3 Zrotation Xrotation Yrotation
          JOINT Spine4
          {
            OFFSET 10.9679 0 0
            CHANNELS 3 Zrotation Xrotation Yrotation
            JOINT RightShoulder
            {
              OFFSET 2.46616 -1.6653 3.69651
              CHANNELS 3 Zrotation Xrotation Yrotation
              JOINT RightArm
              {
                OFFSET 13.0012 0 0
                CHANNELS 3 Zrotation Xrotation Yrotation
                JOINT RightForeArm
                {
                  OFFSET 28.7848 1.52588e-005 0
                  CHANNELS 3 Zrotation Xrotation Yrotation
                  JOINT RightHand
                  {
                    OFFSET 26.5688 1.52588e-005 0
                    CHANNELS 3 Zrotation Xrotation Yrotation
                    End Site
                    {
                      OFFSET 0 0 0
                    }
                  }
                }
              }
            }
            JOINT LeftShoulder
            {
              OFFSET 2.38034 -1.29275 -3.7523
              CHANNELS 3 Zrotation Xrotation Yrotation
              JOINT LeftArm
              {
                OFFSET 16.3182 6.10351e-005 0
                CHANNELS 3 Zrotation Xrotation Yrotation
                JOINT LeftForeArm
                {
                  OFFSET 27.0901 0 0
                  CHANNELS 3 Zrotation Xrotation Yrotation
                  JOINT LeftHand
                  {
                    OFFSET 24.5451 1.52588e-005 0
                    CHANNELS 3 Zrotation Xrotation Yrotation
                    End Site
                    {
                      OFFSET 0 0 0
                    }
                  }
                }
              }
            }
            JOINT Neck
            {
              OFFSET 5.0226 -0.0266342 0
              CHANNELS 3 Zrotation Xrotation Yrotation
              JOINT Head
              {
                OFFSET 6.69363 2.86102e-005 0
                CHANNELS 3 Zrotation Xrotation Yrotation
                End Site
                {
                  OFFSET 0 0 0
                }
              }
            }
          }
        }
      }
    }
  }
}
MOTION
Frames:	14
Frame Time:	0.0416667
46.2431 92.134 0.742568 152.433 -83.4619 156.273 -172.003 -3.74175 91.4783 -42.1535 15.1085 -0.519437 68.0587 8.89515 5.30943 43.9943 12.603 5.91854 -179.199 20.865 92.0465 -26.9419 -22.907 -5.14693 61.9895 -2.16744 -1.28159 55.0898 -0.0996891 -8.42714 -1.00754 8.15861 -90.5032 10.5547 -2.23812 -0.802291 -1.11443 -2.27125 -0.702972 -23.66 -1.89351 -1.438 -3.64736 -1.8935 -1.438 93.0253 -49.4459 -96.272 27.895 -3.21941 13.8018 -9.46608 -20.4206 -43.7217 -8.54259 -1.00058 5.17018 -98.5501 -48.1542 65.4573 -19.2244 10.0841 0.295355 2.10264 3.96746 -38.8666 15.9224 0.988774 2.31278 5.91183 14.7369 -4.50614 0.0343876 15.8348 14.3051 
47.6735 91.7056 8.3544 139.857 -81.7296 144.849 -168.644 4.99025 90.6014 -57.8684 11.9035 -1.45903 56.3353 -0.101762 2.91123 41.7476 11.6332 16.1837 -179.342 19.7613 92.8188 -36.0363 -17.8207 -5.18392 66.4586 -3.82157 -2.10385 48.5857 0.600612 -3.52104 -0.83981 8.25467 -90.7802 10.3499 -2.0301 -1.37259 -1.32014 -2.08853 -1.28191 -23.8573 -1.5238 -1.91923 -3.84468 -1.5238 -1.91923 92.441 -48.9847 -97.2658 28.7909 -2.47708 12.2957 -6.79208 -18.4583 -40.0412 -10.3778 -1.17809 5.94877 -99.1092 -48.7447 64.8443 -20.2268 10.9657 -0.14162 1.56782 4.23764 -37.228 15.4374 0.986698 2.4973 5.1904 15.2398 -4.77533 0.795486 16.4745 15.0496 
49.0264 93.0459 15.3025 122.487 -79.4906 125.91 -165.22 13.2666 92.5974 -59.7225 9.41925 -3.66095 54.8923 -1.04984 3.69132 42.0259 11.9408 16.2272 179.715 14.7306 91.1898 -35.3748 -14.6198 -5.61172 69.1955 -4.95769 -2.62918 41.4421 0.60453 -0.607835 -0.561051 8.22661 -90.6154 10.4129 -1.39965 -1.0998 -1.25775 -1.44669 -1.03715 -23.7927 -1.00445 -1.46958 -3.78005 -1.00444 -1.46959 92.1174 -48.8185 -97.8034 30.2172 -3.05917 11.05 -5.94263 -18.0199 -39.8014 -10.8688 -1.26874 6.52551 -99.6256 -49.0572 64.2021 -21.9248 12.1359 0.026417 2.70092 7.3607 -35.2801 14.1453 1.02231 3.28556 4.88347 13.6192 -4.36682 2.79148 14.9469 13.264 
51.0193 94.512 22.3673 105.86 -75.7216 107.86 -164.037 19.7789 91.0206 -49.3602 6.24082 -6.14884 59.5842 1.68632 0.808706 43.3131 13.1743 15.5364 178.314 8.69008 89.7558 -31.0177 -10.9927 -5.86577 70.7162 -5.39585 -2.77393 38.0449 0.430512 -1.81022 -0.230644 8.06007 -90.3631 10.7525 -0.62674 -0.664747 -0.918446 -0.655383 -0.636518 -23.4529 -0.397988 -0.822367 -3.44021 -0.397988 -0.822369 92.0153 -48.4216 -98.0422 30.8871 -5.2076 10.6641 -7.56324 -21.1413 -42.7515 -10.0393 -1.16525 5.85048 -99.214 -48.4455 64.5819 -24.6475 13.5998 1.49957 2.7702 9.46009 -33.1015 12.7701 1.02069 3.95796 4.2892 10.4618 -5.45229 4.64114 12.1668 12.7684 
53.4897 95.1238 29.4992 97.153 -72.058 98.3395 -165.039 22.953 90.002 -31.8835 0.24688 -7.40352 62.9489 3.44064 0.296234 42.3593 12.1928 15.4331 175.899 2.80129 87.9738 -26.6142 -9.01015 -5.1038 71.5884 -5.50583 -2.77443 39.1664 0.43287 -3.28613 0.154727 7.89479 -90.121 11.0836 0.251884 -0.26468 -0.587317 0.23999 -0.275513 -23.1226 0.31978 -0.176744 -3.10992 0.31978 -0.17674 92.4965 -47.1463 -97.5449 31.1728 -7.22484 10.4003 -9.78414 -21.7195 -47.4663 -8.85612 -0.95778 4.36692 -97.7569 -48.4296 66.7256 -26.9485 15.0091 4.91154 2.9315 10.6918 -33.2686 12.981 1.10564 4.47823 5.37567 7.51978 -5.14651 4.97812 9.0948 10.3582 
56.9909 94.5168 36.4148 91.8195 -70.544 93.9045 -169.545 24.2022 91.5436 -11.9003 0.265785 -4.92065 62.0848 2.78736 1.10833 41.8913 11.7129 15.388 173.522 -1.3171 86.8762 -24.5058 -9.70712 -3.81283 72.0265 -5.70085 -2.83701 42.1368 0.466396 -3.93977 0.62471 7.81133 -90.0344 11.2527 1.2273 -0.189797 -0.41769 1.21775 -0.243643 -22.9574 1.22757 0.187882 -2.94473 1.22758 0.187887 91.5217 -45.8582 -99.3729 29.0255 -9.11396 9.15357 -10.4587 -22.1775 -50.9964 -9.64633 -0.950754 3.68167 -96.3527 -48.5167 68.8449 -28.983 13.7613 8.26286 3.68246 11.4074 -32.383 10.6518 0.84667 3.8243 7.71103 4.97297 -3.51181 4.58844 6.00994 5.99383 
61.2039 93.286 43.5365 90.7454 -71.5124 93.8283 -171.353 26.0413 94.1973 -5.44966 5.24979 -2.89836 63.6762 3.36159 2.35439 41.5394 11.2013 13.8245 172.965 -4.54545 86.1242 -27.1095 -12.6832 -4.65655 70.3413 -5.31498 -2.7181 47.6143 0.300292 -6.38896 1.08847 7.76851 -89.8962 11.3388 2.2143 -0.0147595 -0.330264 2.2115 -0.112261 -22.8796 2.11631 0.651707 -2.86697 2.11631 0.651707 91.4196 -43.9216 -99.9872 28.3998 -9.91763 6.41128 -11.8242 -24.6772 -51.6816 -10.2653 -1.08467 4.54313 -95.3389 -48.9268 70.4821 -30.2272 12.1104 12.4508 3.69136 11.3531 -30.3567 9.44451 0.718274 3.43344 9.36712 3.8311 -4.89035 3.61017 5.17013 6.33144 
66.6333 92.496 51.3714 89.5196 -70.5091 91.1041 -169.664 29.0057 92.9927 -15.6964 5.13986 -4.60893 56.6344 -2.41416 0.299283 38.8525 8.37101 10.3316 173.519 -5.15819 83.6546 -34.7131 -15.1069 -7.6448 63.2774 -2.68985 -1.44002 52.2507 0.333599 -5.87595 1.20355 7.66384 -89.5288 11.5431 2.61497 0.671096 -0.12523 2.64198 0.555273 -22.6764 2.29234 1.42632 -2.66377 2.29233 1.42631 91.7476 -44.9301 -99.2171 27.0677 -8.867 5.63016 -12.6176 -25.7151 -50.5045 -9.82361 -1.11071 4.98415 -95.8339 -49.239 69.8443 -31.03 11.5849 15.2629 2.94169 12.9147 -26.339 8.94265 0.847392 5.07991 9.66247 2.36455 -4.80862 2.56192 3.56199 4.59244 
72.5521 92.3657 59.1153 89.5998 -65.7806 88.401 -168.112 28.9781 88.6762 -26.4266 11.1163 -6.60153 56.8436 -1.78809 2.82132 36.1328 5.78374 0.835121 176.449 -0.105118 82.3752 -48.3682 -9.12159 -8.51431 45.6266 2.90378 2.86981 44.1446 0.554416 -7.36076 0.970467 7.65229 -89.1455 11.5519 2.33051 1.46319 -0.117705 2.39265 1.35917 -22.657 1.78312 2.09595 -2.6443 1.78312 2.09594 91.7647 -45.8887 -98.9759 27.9749 -7.52416 7.56525 -12.0833 -25.2012 -48.3728 -10.3696 -1.20747 5.72295 -96.3919 -48.8074 68.8793 -30.7732 11.942 13.7781 1.82189 14.723 -21.8636 5.17049 0.52289 4.86991 9.46121 0.831302 -4.3421 1.53272 1.83669 3.20264 
78.2819 93.0233 65.6981 91.793 -62.6037 89.5865 -168.984 24.4717 86.4875 -31.0695 12.4628 -6.38067 62.7431 3.35209 5.09466 30.4696 1.53722 -2.67593 179.617 8.29044 83.5499 -63.6244 -4.03418 -7.0335 41.2966 3.47054 3.47083 32.7248 0.47876 -10.686 0.734213 7.75574 -89.1552 11.348 1.8549 1.49675 -0.322412 1.91897 1.41367 -22.8567 1.3194 1.98495 -2.84405 1.3194 1.98494 91.7729 -45.1858 -99.1164 29.24 -7.48475 7.7476 -11.5385 -26.3866 -46.1251 -6.33529 -0.933312 5.35206 -97.1535 -48.4298 67.6247 -30.3729 11.8107 12.2457 2.18242 12.5482 -24.1066 4.05482 0.346248 3.43574 8.35334 0.55102 -2.86745 1.71386 1.2314 2.78603 
83.7983 94.4749 71.8219 92.8514 -59.4333 91.2152 -171.302 17.7859 85.8405 -29.9429 11.6956 -4.61455 65.7458 5.79594 4.57232 30.0503 1.25471 -3.10192 -179.01 17.2348 87.2239 -67.8176 -1.90333 -5.55718 50.0193 0.630452 0.703053 36.8017 0.360073 -7.08278 0.498603 7.83023 -89.3687 11.206 1.28592 1.13041 -0.464733 1.33444 1.07271 -22.9987 0.886779 1.46459 -2.98609 0.886794 1.46458 92.2978 -46.0585 -98.0773 29.2827 -7.66761 8.01806 -11.5339 -27.3348 -45.348 -5.07177 -0.836034 4.92941 -97.5641 -48.4833 67.0325 -28.0099 12.2641 9.01208 3.46483 11.3004 -29.9157 7.86914 0.603335 3.36126 7.2841 0.410191 -1.51796 1.86419 0.814706 2.45476 
89.2896 95.8588 77.6674 92.3322 -55.9379 91.9575 -172.512 10.9494 86.2118 -26.0909 12.5699 -3.54902 66.6173 6.33597 4.36015 31.5076 2.2938 -2.29489 -179.83 22.3717 90.2835 -57.0547 -1.03455 -4.32245 60.2605 -2.33102 -1.4143 39.507 0.353344 -6.22446 0.183413 7.79802 -89.6269 11.2757 0.538791 0.689423 -0.39527 0.568606 0.66503 -22.9293 0.306675 0.819465 -2.91661 0.306697 0.819468 92.7619 -46.1174 -97.3167 30.4932 -8.05528 9.04635 -11.2847 -27.0923 -45.4043 -4.25065 -0.782027 4.84936 -97.389 -47.8997 67.0916 -25.8862 11.0599 5.57294 6.0231 10.0905 -37.2253 11.3469 1.00866 4.77848 5.75174 0.733554 -1.05449 2.4121 1.08304 2.98594 
94.5195 96.0895 83.8379 91.0118 -51.8256 91.2323 -172.645 5.11604 86.5046 -23.8047 12.354 -3.10402 70.2546 8.10288 1.06123 30.286 1.0864 1.09523 178.063 22.8853 91.3419 -33.7846 -0.846881 -2.27289 62.9803 -2.88935 -1.67821 40.757 0.265348 -8.22073 -0.198317 7.74089 -89.7529 11.3921 -0.27929 0.520151 -0.278942 -0.256134 0.531931 -22.8138 -0.422714 0.412159 -2.80111 -0.4227 0.412165 93.4132 -47.409 -96.0265 30.4513 -8.06089 10.4508 -10.7257 -25.7216 -46.3427 -2.14907 -0.610272 3.86462 -97.2516 -46.6863 66.8779 -23.1177 10.7199 1.57203 6.19655 7.17271 -42.716 11.8355 0.704789 2.01105 5.93656 0.647459 -1.7859 1.9183 1.15225 3.72776 
99.6493 95.0305 90.4106 90.3629 -47.9177 89.8295 -172.434 -0.388327 86.8383 -23.2825 16.3013 -2.98934 72.4276 10.8602 4.3849 33.1975 3.53185 -1.40099 176.247 21.8073 90.7499 -9.32674 -4.89414 -0.697918 64.458 -2.70348 -1.52327 44.7594 0.168629 -8.34748 -0.527863 7.69558 -89.726 11.4853 -0.922171 0.639722 -0.185548 -0.893123 0.679691 -22.7228 -1.07178 0.332985 -2.71021 -1.0718 0.33298 93.6182 -48.8749 -95.4474 29.8776 -7.9709 12.2269 -10.4901 -24.7643 -46.75 -3.12777 -0.640361 3.67469 -96.9018 -45.667 67.0515 -20.3454 10.8288 -2.78252 7.51956 6.72271 -47.4898 12.5031 0.673483 1.47661 6.65548 0.289292 -2.22573 1.2124 0.85848 3.64348 
